<mxfile host="app.diagrams.net" modified="2022-07-04T05:24:32.580Z" agent="5.0 (Windows NT 10.0; Win64; x64) AppleWebKit/537.36 (KHTML, like Gecko) Chrome/102.0.0.0 Safari/537.36" etag="wjqPtvnO7bqFRKu3mGpu" version="20.0.4" type="github">
  <diagram id="Q3VGde6Clt855L-URVkx" name="Page-1">
    <mxGraphModel dx="868" dy="425" grid="1" gridSize="10" guides="1" tooltips="1" connect="1" arrows="1" fold="1" page="1" pageScale="1" pageWidth="850" pageHeight="1100" background="#283618" math="0" shadow="0">
      <root>
        <mxCell id="0" />
        <mxCell id="1" parent="0" />
        <mxCell id="5jlzk-WR2jyZFN55qqgN-1" value="employees" style="swimlane;fontStyle=1;align=center;verticalAlign=top;childLayout=stackLayout;horizontal=1;startSize=40;horizontalStack=0;resizeParent=1;resizeParentMax=0;resizeLast=0;collapsible=1;marginBottom=0;rounded=0;sketch=0;fontColor=#FEFAE0;strokeColor=#DDA15E;fillColor=#BC6C25;fontSize=22;strokeWidth=3;" vertex="1" parent="1">
          <mxGeometry x="323" y="350" width="205" height="180" as="geometry" />
        </mxCell>
        <mxCell id="5jlzk-WR2jyZFN55qqgN-2" value="# baseSalary: double&#xa;# fuelAll : double&#xa;# medicalAll : double" style="text;strokeColor=none;fillColor=none;align=left;verticalAlign=top;spacingLeft=4;spacingRight=4;overflow=hidden;rotatable=0;points=[[0,0.5],[1,0.5]];portConstraint=eastwest;rounded=0;sketch=0;fontColor=#FEFAE0;fontSize=18;strokeWidth=9;" vertex="1" parent="5jlzk-WR2jyZFN55qqgN-1">
          <mxGeometry y="40" width="205" height="90" as="geometry" />
        </mxCell>
        <mxCell id="5jlzk-WR2jyZFN55qqgN-3" value="" style="line;strokeWidth=1;fillColor=none;align=left;verticalAlign=middle;spacingTop=-1;spacingLeft=3;spacingRight=3;rotatable=0;labelPosition=right;points=[];portConstraint=eastwest;rounded=0;sketch=0;fontColor=#FEFAE0;" vertex="1" parent="5jlzk-WR2jyZFN55qqgN-1">
          <mxGeometry y="130" width="205" height="8" as="geometry" />
        </mxCell>
        <mxCell id="5jlzk-WR2jyZFN55qqgN-4" value="+ Total () : double" style="text;strokeColor=none;fillColor=none;align=left;verticalAlign=top;spacingLeft=4;spacingRight=4;overflow=hidden;rotatable=0;points=[[0,0.5],[1,0.5]];portConstraint=eastwest;rounded=0;sketch=0;fontColor=#FEFAE0;fontSize=18;" vertex="1" parent="5jlzk-WR2jyZFN55qqgN-1">
          <mxGeometry y="138" width="205" height="42" as="geometry" />
        </mxCell>
        <mxCell id="5jlzk-WR2jyZFN55qqgN-6" value="allEmployees" style="swimlane;fontStyle=1;align=center;verticalAlign=top;childLayout=stackLayout;horizontal=1;startSize=40;horizontalStack=0;resizeParent=1;resizeParentMax=0;resizeLast=0;collapsible=1;marginBottom=0;rounded=0;sketch=0;fontSize=18;fontColor=#FEFAE0;strokeColor=#DDA15E;strokeWidth=3;fillColor=#BC6C25;" vertex="1" parent="1">
          <mxGeometry x="195" y="690" width="460" height="90" as="geometry" />
        </mxCell>
        <mxCell id="5jlzk-WR2jyZFN55qqgN-8" value="" style="line;strokeWidth=1;fillColor=none;align=left;verticalAlign=middle;spacingTop=-1;spacingLeft=3;spacingRight=3;rotatable=0;labelPosition=right;points=[];portConstraint=eastwest;rounded=0;sketch=0;fontSize=18;fontColor=#FEFAE0;" vertex="1" parent="5jlzk-WR2jyZFN55qqgN-6">
          <mxGeometry y="40" width="460" height="8" as="geometry" />
        </mxCell>
        <mxCell id="5jlzk-WR2jyZFN55qqgN-9" value="+ allEmployees(FuelAll : double, MedicalAll : double)" style="text;strokeColor=none;fillColor=none;align=left;verticalAlign=top;spacingLeft=4;spacingRight=4;overflow=hidden;rotatable=0;points=[[0,0.5],[1,0.5]];portConstraint=eastwest;rounded=0;sketch=0;fontSize=18;fontColor=#FEFAE0;" vertex="1" parent="5jlzk-WR2jyZFN55qqgN-6">
          <mxGeometry y="48" width="460" height="42" as="geometry" />
        </mxCell>
        <mxCell id="5jlzk-WR2jyZFN55qqgN-10" value="salarySlip" style="swimlane;fontStyle=1;align=center;verticalAlign=top;childLayout=stackLayout;horizontal=1;startSize=40;horizontalStack=0;resizeParent=1;resizeParentMax=0;resizeLast=0;collapsible=1;marginBottom=0;rounded=0;sketch=0;fontSize=18;fontColor=#FEFAE0;strokeColor=#DDA15E;strokeWidth=3;fillColor=#BC6C25;" vertex="1" parent="1">
          <mxGeometry x="300" y="910" width="250" height="90" as="geometry" />
        </mxCell>
        <mxCell id="5jlzk-WR2jyZFN55qqgN-12" value="" style="line;strokeWidth=1;fillColor=none;align=left;verticalAlign=middle;spacingTop=-1;spacingLeft=3;spacingRight=3;rotatable=0;labelPosition=right;points=[];portConstraint=eastwest;rounded=0;sketch=0;fontSize=18;fontColor=#FEFAE0;" vertex="1" parent="5jlzk-WR2jyZFN55qqgN-10">
          <mxGeometry y="40" width="250" height="8" as="geometry" />
        </mxCell>
        <mxCell id="5jlzk-WR2jyZFN55qqgN-13" value="+calculateSalary() : void" style="text;strokeColor=none;fillColor=none;align=left;verticalAlign=top;spacingLeft=4;spacingRight=4;overflow=hidden;rotatable=0;points=[[0,0.5],[1,0.5]];portConstraint=eastwest;rounded=0;sketch=0;fontSize=18;fontColor=#FEFAE0;" vertex="1" parent="5jlzk-WR2jyZFN55qqgN-10">
          <mxGeometry y="48" width="250" height="42" as="geometry" />
        </mxCell>
        <mxCell id="5jlzk-WR2jyZFN55qqgN-14" value="" style="endArrow=diamondThin;endFill=0;endSize=24;html=1;rounded=1;sketch=0;fontSize=18;fontColor=#FEFAE0;strokeColor=#DDA15E;fillColor=#BC6C25;curved=0;entryX=0.5;entryY=0;entryDx=0;entryDy=0;exitX=0.498;exitY=1.024;exitDx=0;exitDy=0;exitPerimeter=0;" edge="1" parent="1" source="5jlzk-WR2jyZFN55qqgN-9" target="5jlzk-WR2jyZFN55qqgN-10">
          <mxGeometry width="160" relative="1" as="geometry">
            <mxPoint x="425" y="790" as="sourcePoint" />
            <mxPoint x="440" y="900" as="targetPoint" />
          </mxGeometry>
        </mxCell>
        <mxCell id="5jlzk-WR2jyZFN55qqgN-15" value="" style="endArrow=classic;html=1;rounded=1;sketch=0;fontSize=18;fontColor=#FEFAE0;strokeColor=#DDA15E;fillColor=#BC6C25;curved=0;exitX=0.487;exitY=-0.011;exitDx=0;exitDy=0;exitPerimeter=0;" edge="1" parent="1" source="5jlzk-WR2jyZFN55qqgN-6">
          <mxGeometry width="50" height="50" relative="1" as="geometry">
            <mxPoint x="400" y="670" as="sourcePoint" />
            <mxPoint x="419" y="530" as="targetPoint" />
          </mxGeometry>
        </mxCell>
      </root>
    </mxGraphModel>
  </diagram>
</mxfile>
